<?xml version="1.0" standalone="no"?>
<!DOCTYPE svg PUBLIC "-//W3C//DTD SVG 20010904//EN"
 "http://www.w3.org/TR/2001/REC-SVG-20010904/DTD/svg10.dtd">
<svg version="1.0" xmlns="http://www.w3.org/2000/svg"
 width="260.000000pt" height="260.000000pt" viewBox="0 0 260.000000 260.000000"
 preserveAspectRatio="xMidYMid meet">
<metadata>
Created by potrace 1.14, written by Peter Selinger 2001-2017
</metadata>
<g transform="translate(0.000000,260.000000) scale(0.100000,-0.100000)"
fill="#000000" stroke="none">
<path d="M1053 1717 c-3 -5 -11 -6 -18 -3 -16 6 -112 -22 -141 -40 -11 -8 -24
-11 -27 -7 -4 3 -7 1 -7 -5 0 -7 -5 -12 -11 -12 -16 0 -96 -65 -141 -114 -42
-46 -102 -156 -113 -207 -4 -19 -10 -38 -13 -44 -3 -5 -6 -48 -7 -95 -1 -80
18 -185 40 -221 5 -7 10 -19 11 -26 4 -23 69 -109 122 -160 48 -46 245 -162
227 -133 -7 11 8 14 19 3 15 -16 196 -26 196 -11 0 5 5 6 10 3 13 -8 111 20
155 45 19 11 35 17 35 14 0 -8 88 62 120 96 57 59 76 87 72 100 -3 8 -1 12 3
8 10 -10 41 58 64 142 18 65 22 192 7 237 -4 12 -9 32 -11 45 -3 13 -21 55
-40 94 -36 72 -137 187 -175 199 -11 3 -20 11 -20 16 0 6 -4 7 -10 4 -5 -3
-10 -2 -10 2 0 5 -19 17 -42 26 -24 10 -55 24 -70 32 -16 8 -28 10 -28 5 0 -6
-9 -6 -24 0 -13 5 -27 6 -30 3 -3 -4 -6 -1 -6 7 0 9 -3 10 -13 1 -8 -6 -17 -8
-21 -3 -11 10 -96 10 -103 -1z m97 -43 c30 -1 75 -7 100 -14 58 -15 152 -65
180 -95 l22 -23 -21 -7 c-28 -9 -26 -23 4 -35 26 -10 34 -22 13 -19 -25 3 -39
-1 -34 -10 3 -5 -1 -11 -9 -15 -8 -3 -14 -2 -13 2 3 10 -25 52 -35 52 -4 0 -5
-4 -2 -10 3 -5 0 -10 -8 -10 -8 0 -17 -7 -21 -15 -6 -17 9 -21 19 -5 3 6 12
10 18 9 8 0 8 -2 -1 -6 -10 -4 -9 -8 5 -19 13 -9 14 -13 4 -14 -11 0 -11 -3 0
-17 13 -15 11 -16 -14 -9 -19 4 -26 3 -22 -4 3 -5 1 -10 -4 -10 -15 0 -14 -16
4 -33 12 -13 12 -16 -6 -20 -12 -3 -18 -10 -15 -16 6 -10 -30 -51 -45 -51 -4
0 -7 -22 -6 -49 3 -63 33 -100 78 -96 16 1 32 5 35 8 10 10 64 -15 64 -29 0
-24 1 -28 18 -56 13 -22 13 -32 4 -52 -9 -21 -8 -27 6 -35 12 -7 13 -10 3 -11
-11 0 -11 -3 -1 -15 7 -8 10 -15 6 -15 -4 0 0 -12 8 -27 8 -17 11 -36 6 -49
-10 -26 -103 -104 -124 -104 -9 0 -16 -4 -16 -10 0 -5 -12 -13 -27 -16 -16 -4
-34 -12 -42 -18 -8 -6 -16 -10 -18 -8 -2 1 -14 0 -26 -3 -13 -4 -37 -7 -53 -9
-16 -1 -35 -5 -42 -9 -6 -5 -12 -4 -12 1 0 13 -33 10 -42 -3 -5 -7 -8 -6 -8 1
0 6 -12 11 -27 12 -44 3 -65 8 -104 24 -20 9 -45 19 -57 22 -12 4 -22 12 -22
17 0 6 -4 7 -10 4 -5 -3 -10 -1 -10 4 0 6 -6 11 -13 11 -22 0 -134 128 -161
183 -26 55 -39 85 -42 102 -1 6 -3 12 -4 15 -1 3 -4 40 -7 83 -3 56 -1 82 9
94 9 12 9 15 1 9 -7 -4 -13 -3 -13 3 0 5 5 13 10 16 6 4 8 10 5 15 -3 4 1 21
8 38 10 25 14 27 25 16 7 -8 10 -14 6 -14 -3 0 0 -8 7 -17 11 -13 11 -15 1 -9
-11 7 -11 4 0 -15 7 -13 14 -26 16 -29 2 -2 7 2 13 10 8 13 10 13 18 1 5 -8 8
-22 6 -32 -2 -12 5 -19 27 -23 16 -3 34 -3 39 0 5 3 9 1 9 -5 0 -5 8 -12 19
-16 10 -3 29 -14 41 -25 12 -11 26 -17 30 -15 4 3 10 -4 13 -15 3 -13 0 -20
-8 -20 -8 0 -15 -12 -17 -27 -4 -32 37 -103 58 -103 15 0 21 -21 29 -95 12
-120 32 -167 76 -178 23 -6 22 -9 5 39 -16 47 -12 62 21 75 14 5 23 12 20 15
-3 4 3 15 13 26 10 11 17 29 15 40 -3 14 4 22 25 30 28 9 33 18 33 61 0 9 3
17 7 17 4 0 11 7 14 17 8 21 -26 53 -56 53 -28 0 -42 9 -51 33 -4 9 -18 22
-32 27 -14 5 -25 14 -25 20 0 5 -10 8 -22 7 -12 -2 -33 2 -47 9 -22 11 -27 11
-34 -1 -11 -21 -61 -20 -53 0 3 9 -2 20 -13 27 -11 6 -17 18 -14 25 6 16 7 16
-35 4 -32 -10 -33 -9 -30 17 2 15 10 32 18 39 22 18 79 16 87 -3 4 -12 9 -8
21 15 8 17 20 31 27 31 11 0 20 14 28 40 0 3 20 18 44 33 24 16 40 34 36 40
-4 7 0 8 11 4 10 -4 24 -7 32 -7 9 0 12 -4 9 -10 -3 -6 4 -10 17 -10 17 0 19
3 9 9 -7 5 -10 14 -6 20 4 7 1 18 -5 26 -7 8 -9 15 -4 16 5 1 -2 4 -15 8 -34
9 -38 29 -6 29 37 0 50 15 35 41 -6 12 -15 19 -21 16 -5 -4 -9 -2 -9 3 0 5
-10 8 -22 6 -13 -1 -29 -3 -37 -3 -8 -1 -11 -7 -7 -17 4 -10 1 -14 -6 -12 -7
3 -14 10 -14 16 -3 26 -5 26 -23 3 -18 -24 -51 -37 -51 -21 0 4 10 15 23 24
l22 17 -24 -12 c-20 -9 -27 -9 -36 4 -9 13 -14 14 -23 5 -9 -9 -12 -8 -12 5 0
10 8 17 19 17 11 0 22 4 26 9 3 5 31 15 63 22 31 7 61 16 66 20 5 5 14 5 20 1
6 -3 36 -7 66 -8z m-274 -71 c-3 -4 4 -13 16 -21 23 -13 23 -13 1 -9 -24 5
-58 -24 -46 -38 5 -4 2 -5 -5 -1 -11 7 -10 11 2 25 9 10 13 20 10 24 -8 8 5
27 18 27 6 0 8 -3 4 -7z m214 -32 c0 -4 -9 -16 -20 -26 -11 -10 -20 -14 -20
-10 0 11 -25 -13 -26 -25 -1 -6 -2 -15 -3 -21 0 -5 -5 -8 -10 -4 -6 3 -14 -3
-20 -12 -9 -16 -10 -16 -11 -2 0 9 -9 19 -20 22 -11 3 -20 13 -20 22 0 9 4 14
9 11 5 -3 14 0 20 8 7 8 20 12 30 9 11 -3 27 3 38 14 18 19 53 28 53 14z m410
-75 c9 -12 8 -15 -8 -13 -12 0 -18 6 -15 14 6 16 8 16 23 -1z m-547 -92 c-6
-16 -23 -19 -23 -4 0 6 5 10 12 10 9 0 8 3 -1 13 -11 10 -14 10 -18 0 -3 -7
-9 -13 -14 -13 -11 0 -7 23 6 32 14 10 45 -21 38 -38z m537 8 c0 -4 7 -16 16
-27 13 -17 16 -18 24 -5 7 10 10 11 10 3 0 -7 5 -13 12 -13 19 0 47 -31 41
-46 -4 -11 -10 -11 -38 0 -18 8 -38 10 -46 6 -7 -5 -21 -4 -31 1 -10 5 -18 7
-18 4 0 -4 -5 -3 -10 0 -8 5 -8 11 0 20 8 10 4 12 -21 9 -17 -2 -35 -6 -40 -9
-14 -9 -11 8 6 32 15 22 23 23 62 9 14 -4 20 -12 16 -22 -3 -7 -1 -14 4 -14 5
0 9 9 10 20 1 11 -4 20 -12 20 -22 0 -26 16 -4 17 10 1 19 -1 19 -5z m-783
-114 c-3 -7 -5 -2 -5 12 0 14 2 19 5 13 2 -7 2 -19 0 -25z"/>
<path d="M1055 1420 c3 -5 8 -10 11 -10 2 0 4 5 4 10 0 6 -5 10 -11 10 -5 0
-7 -4 -4 -10z"/>
<path d="M1910 1570 c-7 -22 -13 -47 -13 -55 0 -8 -3 -15 -6 -15 -4 0 -8 -12
-9 -27 -1 -16 -7 -30 -12 -31 -6 -2 -8 -7 -5 -11 4 -7 -17 -85 -54 -206 -8
-25 -30 -101 -37 -127 -1 -5 -2 -9 -4 -10 -1 -2 -3 -10 -5 -18 -18 -75 -60
-216 -65 -220 -6 -5 -7 -14 -13 -70 -2 -24 0 -25 66 -25 60 -1 69 2 82 22 9
13 13 23 11 23 -3 0 2 16 10 35 8 19 12 35 9 35 -2 0 0 12 6 28 6 15 12 34 14
42 2 8 11 41 20 74 9 32 18 64 20 70 1 6 5 18 8 26 12 31 31 106 30 123 0 9 3
17 7 17 5 0 11 18 15 40 4 22 11 42 16 46 5 3 7 9 4 14 -2 4 4 33 15 64 10 31
16 56 13 56 -3 0 0 7 7 15 7 8 10 15 6 15 -3 0 -1 11 4 26 6 14 12 37 15 52 4
22 1 28 -15 28 -10 0 -16 -5 -13 -10 4 -5 1 -6 -6 -1 -18 11 -71 13 -77 3 -3
-5 -11 -4 -18 1 -10 8 -16 1 -26 -29z"/>
<path d="M2116 1432 c-2 -4 -5 -34 -5 -66 0 -57 1 -58 37 -74 20 -8 40 -15 45
-14 4 1 7 -2 7 -8 0 -5 7 -7 15 -4 8 4 15 1 15 -5 0 -6 7 -11 15 -11 9 0 34
-9 57 -20 22 -11 45 -17 49 -14 5 3 9 0 9 -5 0 -6 5 -10 12 -8 6 1 14 -7 16
-18 2 -11 1 -17 -2 -14 -4 4 -43 -9 -87 -27 -44 -19 -87 -34 -95 -34 -8 0 -14
-4 -14 -10 0 -5 -7 -10 -15 -10 -8 0 -25 -5 -38 -11 -22 -10 -24 -17 -25 -75
0 -60 12 -92 24 -61 2 7 11 14 19 15 8 1 22 3 30 4 8 1 15 5 15 10 0 4 11 8
25 8 14 0 25 4 25 9 0 8 28 19 69 27 8 1 18 9 22 16 5 7 9 10 9 5 0 -4 17 1
38 12 20 10 40 19 45 20 4 0 21 8 37 16 17 9 30 13 30 9 0 -4 6 -1 13 5 8 6
17 8 20 4 4 -3 7 -2 7 4 0 6 11 14 25 17 23 6 25 11 25 64 0 58 0 58 -37 72
-21 8 -40 15 -43 15 -7 2 -80 33 -105 45 -73 34 -185 77 -189 72 -4 -3 -6 0
-6 6 0 7 -3 11 -7 10 -8 -1 -57 17 -74 27 -4 3 -10 2 -13 -3z"/>
<path d="M444 1398 c-11 -4 -46 -20 -79 -35 -33 -15 -62 -27 -65 -28 -22 -4
-106 -41 -111 -48 -4 -5 -12 -6 -18 -3 -6 4 -11 2 -11 -3 0 -6 -3 -10 -7 -9
-9 1 -50 -15 -109 -42 -38 -19 -40 -22 -39 -63 0 -43 20 -77 45 -77 6 0 21 -5
33 -12 12 -7 27 -12 32 -13 6 0 26 -7 45 -16 73 -34 135 -62 145 -64 6 -1 28
-10 50 -19 144 -61 138 -59 132 -36 -3 11 -2 20 1 20 4 0 7 18 7 40 0 22 -4
40 -8 40 -5 0 -6 4 -3 9 5 8 -98 51 -123 51 -6 0 -11 5 -11 10 0 6 -8 10 -18
10 -10 0 -22 3 -26 8 -4 4 -11 7 -14 8 -4 0 -20 6 -35 12 -16 7 -32 12 -37 12
-5 0 -12 5 -16 12 -4 7 -3 8 4 4 7 -4 12 -3 12 2 0 8 28 19 57 23 5 1 17 8 28
15 11 8 27 14 37 14 10 0 18 5 18 11 0 5 4 8 9 4 5 -3 13 0 16 6 4 5 13 8 21
5 8 -3 14 -2 14 2 0 5 16 14 36 21 30 11 35 17 31 37 -2 13 1 25 7 28 7 3 6 8
-4 15 -8 6 -10 11 -5 11 6 0 10 10 10 23 0 24 -18 29 -51 15z"/>
</g>
</svg>
